<svg width="627" height="409" viewBox="0 0 627 409" fill="none" xmlns="http://www.w3.org/2000/svg">
<path d="M264.578 492.82C231.232 490.206 197.886 487.578 164.54 484.964C158.901 484.529 153.262 483.798 147.622 483.868C142.882 483.924 140.962 481.62 139.449 477.376C128.416 446.163 117.001 415.091 106.076 383.851C100.396 367.606 95.2063 351.093 89.1445 335.072C74.5013 296.426 61.7106 257.119 47.2714 218.417C43.4845 208.284 40.1473 197.828 35.0936 188.399C29.713 178.365 20.2187 173.502 9.02166 172.771C6.09302 172.575 3.13711 172.659 0.194824 172.603C0.194824 138.481 0.194824 104.375 0.194824 70.2533C18.8293 68.2154 37.4501 66.023 56.0984 64.2103C70.4556 62.8047 84.8943 61.5822 99.1565 59.8538C116.769 57.7178 134.382 55.2303 152.009 53.1503C179.592 49.904 207.203 47.0091 234.815 44.072C237.239 43.819 239.732 44.3249 242.198 44.4795C239.732 44.606 237.185 45.14 234.788 44.7746C228.126 43.7768 226.56 46.5313 226.642 53.2206C227.105 90.7849 227.023 128.349 227.309 165.914C227.35 170.635 226.369 172.111 221.343 173.348C206.945 176.917 198.145 179.629 204.479 200.99C209.683 218.529 214.287 236.236 218.741 253.999C224.312 276.217 231.328 298.056 237.811 320.036C239.528 325.868 241.53 331.601 243.396 337.377C248.11 326.388 251.474 315.328 254.866 304.296C261.486 282.794 268.12 261.307 274.754 239.805C278.922 229.167 281.251 218.473 275.843 207.455C275.053 205.839 275.053 203.801 274.318 202.143C270.735 194.09 269.223 184.801 261.54 179.166C260.192 175.385 257.277 173.601 253.667 173.783C246.951 174.121 245.59 170.748 245.644 164.452C245.957 127.154 245.916 89.8576 245.93 52.5601C245.93 49.6933 247.074 46.3486 243.805 44.3249C246.502 41.7532 249.962 41.6548 253.313 41.3175C305.729 35.9492 358.146 30.5809 410.562 25.2406C427.425 23.5261 444.317 21.924 461.18 20.2658C461.316 67.892 461.371 115.504 461.684 163.131C461.725 169.062 460.54 171.085 454.083 171.844C438.936 173.643 432.779 179.587 436.484 195.805C445.324 234.451 455.036 272.873 464.231 311.421C466.179 319.6 468.767 327.61 471.138 335.916C473.59 334.51 473.385 332.641 473.821 331.207C480.754 308.568 487.851 285.97 494.349 263.19C497.454 252.299 502.549 241.927 503.04 230.305C503.462 230.263 504.211 230.334 504.279 230.151C508.256 218.304 513.296 206.682 513.746 193.936C514.237 180.093 507.289 173.488 493.6 173.881C491.829 173.559 490.017 172.828 488.287 172.996C482.348 173.601 480.741 170.565 481.19 165.07C483.111 142.023 481.558 118.92 482.089 95.8579C482.239 89.3516 481.258 82.9571 481.585 76.3665C482.512 57.549 483.016 38.6615 481.667 19.802C483.411 17.1881 486.148 16.8649 488.859 16.5697C538.511 11.1733 588.107 5.73473 637.702 0.324217C639.039 0.183685 640.402 0.338271 641.75 0.352324C641.915 55.9191 642.075 111.471 642.225 167.038C642.225 168.204 642.158 169.37 642.034 170.523C641.925 171.549 641.12 172.631 640.361 172.265C635.905 170.143 632.198 173.713 628.032 173.783C616.374 173.952 607.447 180.627 603.456 192.094C600.787 199.754 598.376 207.497 595.872 215.212C581.323 260.014 566.773 304.816 552.255 349.631C545.347 370.979 538.553 392.353 531.66 413.7C526.265 430.382 520.818 447.048 515.34 463.716C511.39 475.745 507.889 487.972 503.149 499.664C500.615 505.946 498.476 512.017 498.313 518.79C483.002 518.861 467.882 516.767 452.707 515.024C436.579 513.169 420.383 512.045 404.228 510.541C396.354 509.81 388.508 508.784 380.635 508.278C376.862 508.025 375.036 506.241 373.906 502.742C365.787 477.642 357.587 452.558 349.346 427.501C348.706 425.547 348.924 422.61 345.641 422.75C345.927 418.492 345.028 414.445 343.761 410.44C339.061 395.67 334.784 380.76 329.608 366.172C326.502 357.403 325.045 347.931 319.474 338.136C317.88 342.76 316.736 345.893 315.714 349.083C307.173 375.756 298.66 402.43 290.132 429.103C283.308 450.421 276.47 471.712 269.632 493.031C267.983 492.96 266.349 492.876 264.701 492.806C264.646 492.792 264.578 492.82 264.578 492.82Z" fill="#5BAC43"/>
</svg>
