<svg width="135" height="98" viewBox="0 0 135 98" fill="none" xmlns="http://www.w3.org/2000/svg">
<path d="M51.2077 92.5222C44.749 92.0315 38.2903 91.5381 31.8316 91.0474C30.7394 90.9656 29.6471 90.8284 28.5548 90.8416C27.6367 90.8522 27.2647 90.4195 26.9718 89.6227C24.8347 83.7629 22.6238 77.9295 20.5079 72.0645C19.4077 69.0146 18.4025 65.9145 17.2284 62.9068C14.3922 55.6513 11.9148 48.2719 9.11811 41.0059C8.38465 39.1036 7.73826 37.1407 6.75943 35.3704C5.71728 33.4866 3.87835 32.5737 1.70963 32.4365C1.14239 32.3996 0.569868 32.4154 -1.52588e-05 32.4049C-1.52588e-05 25.9989 -1.52588e-05 19.5957 -1.52588e-05 13.1898C3.60924 12.8072 7.21586 12.3956 10.8278 12.0553C13.6086 11.7914 16.4052 11.5619 19.1676 11.2374C22.579 10.8364 25.9903 10.3694 29.4044 9.9789C34.747 9.36944 40.0949 8.82594 45.4429 8.27453C45.9125 8.22704 46.3953 8.32202 46.8729 8.35104C46.3953 8.37479 45.9019 8.47504 45.4376 8.40645C44.1474 8.21912 43.844 8.73624 43.8599 9.99209C43.9496 17.0444 43.9337 24.0967 43.9891 31.149C43.9971 32.0355 43.8071 32.3125 42.8335 32.5447C40.0448 33.2148 38.3404 33.724 39.5673 37.7343C40.5751 41.027 41.4669 44.3513 42.3296 47.6862C43.4087 51.8574 44.7675 55.9574 46.0233 60.0838C46.3557 61.1787 46.7436 62.2551 47.105 63.3395C48.0179 61.2763 48.6696 59.1999 49.3265 57.1288C50.6088 53.0921 51.8936 49.0581 53.1785 45.0214C53.9858 43.0242 54.437 41.0164 53.3896 38.948C53.2365 38.6445 53.2365 38.262 53.0941 37.9507C52.4002 36.4389 52.1073 34.6949 50.6193 33.637C50.3581 32.9272 49.7935 32.5922 49.0943 32.6265C47.7936 32.6898 47.5298 32.0566 47.5404 30.8746C47.601 23.8724 47.5931 16.8703 47.5958 9.86809C47.5958 9.32987 47.8174 8.70194 47.1842 8.32202C47.7066 7.8392 48.3767 7.82073 49.0257 7.75741C59.1781 6.74956 69.3305 5.74172 79.4828 4.73914C82.7491 4.41726 86.0207 4.11649 89.2869 3.80517C89.3133 12.7465 89.3239 21.6852 89.3845 30.6266C89.3925 31.74 89.1629 32.1199 87.9123 32.2624C84.9785 32.6001 83.786 33.7161 84.5036 36.7608C86.2159 44.0162 88.097 51.2295 89.8779 58.4664C90.2552 60.002 90.7565 61.5058 91.2156 63.0651C91.6905 62.8012 91.6509 62.4503 91.7353 62.1812C93.0782 57.9309 94.4528 53.6884 95.7113 49.4116C96.3128 47.3669 97.2996 45.4198 97.3946 43.2379C97.4764 43.23 97.6215 43.2432 97.6347 43.2089C98.405 40.9848 99.3812 38.8028 99.4683 36.4099C99.5633 33.8111 98.2177 32.5711 95.5662 32.6449C95.2232 32.5843 94.8723 32.4471 94.5372 32.4787C93.3869 32.5922 93.0756 32.0223 93.1627 30.9907C93.5347 26.6638 93.2339 22.3264 93.3368 17.9968C93.3658 16.7753 93.1758 15.5748 93.2392 14.3375C93.4186 10.8047 93.5162 7.25877 93.255 3.7181C93.5927 3.22737 94.123 3.16669 94.648 3.11128C104.265 2.09816 113.871 1.07712 123.477 0.0613541C123.736 0.0349707 124 0.0639925 124.261 0.0666308C124.293 10.4987 124.324 20.928 124.353 31.3601C124.353 31.579 124.34 31.798 124.316 32.0144C124.295 32.207 124.139 32.4101 123.992 32.3415C123.129 31.9431 122.411 32.6133 121.604 32.6265C119.346 32.6581 117.617 33.9113 116.844 36.0642C116.327 37.5021 115.86 38.9559 115.375 40.4043C112.557 48.8154 109.739 57.2264 106.927 65.6401C105.589 69.6478 104.273 73.6607 102.938 77.6683C101.893 80.8001 100.838 83.9291 99.777 87.0582C99.0119 89.3166 98.3338 91.612 97.4157 93.8071C96.9249 94.9865 96.5107 96.1262 96.4791 97.3979C93.5136 97.4111 90.585 97.018 87.6459 96.6908C84.5221 96.3426 81.3851 96.1315 78.256 95.8492C76.731 95.712 75.2113 95.5194 73.6864 95.4244C72.9556 95.3769 72.602 95.0419 72.383 94.3849C70.8106 89.6728 69.2223 84.9634 67.6261 80.2592C67.5021 79.8925 67.5443 79.3411 66.9085 79.3674C66.9639 78.568 66.7897 77.8082 66.5444 77.0562C65.6341 74.2833 64.8057 71.4841 63.8031 68.7454C63.2016 67.0991 62.9193 65.3209 61.8402 63.4819C61.5315 64.35 61.3099 64.9383 61.112 65.5372C59.4578 70.5448 57.8088 75.5524 56.1572 80.56C54.8354 84.5623 53.5109 88.5594 52.1865 92.5618C51.8672 92.5486 51.5506 92.5328 51.2314 92.5196C51.2208 92.517 51.2077 92.5222 51.2077 92.5222Z" fill="#4CA647"/>
<path d="M96.4764 97.3975C96.5081 96.1258 96.9223 94.986 97.413 93.8067C98.3285 91.6116 99.0092 89.3136 99.7744 87.0578C100.835 83.9314 101.89 80.8023 102.935 77.6679C104.27 73.6603 105.587 69.6447 106.924 65.6397C109.734 57.226 112.555 48.815 115.372 40.4039C115.858 38.9555 116.325 37.5017 116.842 36.0638C117.615 33.9109 119.343 32.6604 121.601 32.6261C122.409 32.6155 123.126 31.9454 123.989 32.3411C124.139 32.4097 124.293 32.2066 124.314 32.014C124.337 31.7976 124.351 31.5786 124.351 31.3597C124.322 20.9276 124.29 10.4982 124.258 0.0662203C127.461 0.0477518 130.661 0.0477518 133.862 0.000261571C134.59 -0.0102918 134.722 0.298395 134.719 0.94479C134.659 11.2475 134.611 21.5476 134.582 31.8504C134.579 32.5469 134.321 32.7949 133.653 32.758C133.041 32.7237 132.427 32.7527 131.812 32.7527C129.224 32.7527 127.878 33.5917 127.015 36.0717C125.274 41.0688 123.601 46.0896 121.952 51.1156C117.077 65.9827 112.209 80.855 107.391 95.7432C106.974 97.0308 106.428 97.5426 105.025 97.4766C102.178 97.3421 99.3232 97.4133 96.4764 97.3975Z" fill="#305126"/>
<path d="M93.2656 3.72826C93.5294 7.26892 93.4291 10.8122 93.2497 14.3476C93.1864 15.585 93.3764 16.7854 93.3473 18.007C93.2418 22.3365 93.5452 26.674 93.1732 31.0009C93.0835 32.0324 93.3975 32.6023 94.5478 32.4889C94.8829 32.4572 95.2338 32.5944 95.5794 32.6525C94.8881 33.8133 94.8908 35.0824 95.2311 36.3013C95.8854 38.6362 96.6743 40.9342 97.4051 43.2454C97.3101 45.43 96.3234 47.3744 95.7219 49.4192C94.4634 53.6959 93.0888 57.9384 91.7459 62.1888C91.6614 62.4579 91.7037 62.8088 91.2261 63.0726C90.7697 61.5107 90.2658 60.0068 89.8885 58.474C88.1076 51.237 86.2264 44.0237 84.5142 36.7683C83.7965 33.721 84.9891 32.6076 87.9229 32.2699C89.1735 32.1248 89.403 31.7449 89.3951 30.6341C89.3344 21.6928 89.3239 12.754 89.2975 3.81268C90.6193 3.78102 91.9411 3.75464 93.2656 3.72826Z" fill="#305126"/>
<path d="M53.1838 45.0237C51.8989 49.0603 50.614 53.0944 49.3318 57.131C48.6748 59.2048 48.0232 61.2785 47.1103 63.3417C46.7489 62.2573 46.361 61.1809 46.0286 60.086C44.7754 55.9596 43.414 51.8596 42.3349 47.6884C41.4722 44.3509 40.5804 41.0292 39.5726 37.7365C38.3457 33.7263 40.0501 33.2171 42.8388 32.5469C43.8124 32.3121 43.9997 32.0377 43.9944 31.1512C43.939 24.0989 43.9548 17.044 43.8651 9.99432C43.8493 8.73847 44.1527 8.21872 45.4429 8.40868C45.9099 8.47728 46.4006 8.37702 46.8781 8.35327C46.9837 8.34536 47.0892 8.33744 47.1921 8.32689C47.8253 8.70681 47.6037 9.33474 47.6037 9.87296C47.601 16.8751 47.609 23.8773 47.5483 30.8795C47.5377 32.0615 47.8016 32.6947 49.1023 32.6313C49.8014 32.597 50.366 32.9321 50.6272 33.6418C49.8014 34.9135 50.0573 36.2142 50.5085 37.5255C51.3237 39.8974 52.1284 42.2719 52.9358 44.6464C52.9305 44.839 52.949 45.0131 53.197 45.0368L53.1838 45.0237Z" fill="#305126"/>
<path d="M52.1759 92.5588C53.5004 88.559 54.8248 84.5593 56.1466 80.5569C57.8009 75.5493 59.4472 70.5418 61.1015 65.5342C61.2993 64.9353 61.521 64.3469 61.8296 63.4789C62.9087 65.3178 63.191 67.0961 63.7926 68.7424C64.7951 71.481 65.6236 74.2803 66.5338 77.0532C66.7818 77.8051 66.956 78.5676 66.8979 79.3644C65.4811 83.5409 64.0511 87.7121 62.6581 91.8965C62.4734 92.448 62.2122 92.6801 61.6344 92.6722C58.4842 92.6247 55.3314 92.5957 52.1759 92.5588Z" fill="#305126"/>
<path d="M51.2077 92.5222L51.2224 92.5193C51.2224 92.5163 51.2077 92.5222 51.2077 92.5222Z" fill="#305126"/>
<path d="M52.9358 44.6437C53.0809 44.7334 53.2788 44.7915 53.197 45.0342C52.949 45.0105 52.9305 44.8363 52.9358 44.6437Z" fill="#4CA647"/>
</svg>
