<svg width="70" height="51" viewBox="0 0 70 51" fill="none" xmlns="http://www.w3.org/2000/svg">
<g clip-path="url(#clip0)">
<path d="M26.5953 48.1492C23.2942 47.8939 19.9931 47.6371 16.692 47.3817C16.1337 47.3392 15.5754 47.2678 15.0172 47.2746C14.5479 47.2801 14.3578 47.055 14.2081 46.6403C13.1158 43.5908 11.9858 40.5551 10.9043 37.5029C10.342 35.9157 9.82821 34.3024 9.22811 32.7371C7.7785 28.9613 6.51227 25.121 5.08285 21.3397C4.70797 20.3498 4.3776 19.3282 3.87731 18.407C3.34465 17.4266 2.40475 16.9515 1.2963 16.8801C1.00637 16.8609 0.713751 16.8692 0.422478 16.8637C0.422478 13.53 0.422478 10.1977 0.422478 6.864C2.26721 6.66489 4.11059 6.45069 5.95669 6.2736C7.37799 6.13626 8.80737 6.01683 10.2193 5.84795C11.9629 5.63927 13.7064 5.39624 15.4514 5.19302C18.1821 4.87585 20.9154 4.59301 23.6489 4.30605C23.8889 4.28134 24.1356 4.33077 24.3797 4.34587C24.1356 4.35823 23.8835 4.4104 23.6461 4.3747C22.9867 4.27722 22.8316 4.54633 22.8398 5.19988C22.8856 8.86996 22.8775 12.54 22.9058 16.2101C22.9099 16.6715 22.8128 16.8156 22.3152 16.9364C20.8898 17.2852 20.0187 17.5502 20.6458 19.6372C21.1609 21.3507 21.6167 23.0807 22.0576 24.8162C22.6092 26.9869 23.3037 29.1206 23.9455 31.268C24.1154 31.8378 24.3137 32.398 24.4984 32.9623C24.965 31.8886 25.2981 30.808 25.6338 29.7302C26.2892 27.6295 26.9459 25.5302 27.6026 23.4294C28.0152 22.3901 28.2458 21.3452 27.7105 20.2688C27.6323 20.1108 27.6323 19.9118 27.5595 19.7498C27.2048 18.963 27.0551 18.0554 26.2946 17.5049C26.1611 17.1355 25.8725 16.9612 25.5151 16.979C24.8503 17.012 24.7155 16.6824 24.7209 16.0673C24.7519 12.4233 24.7478 8.77936 24.7492 5.13535C24.7492 4.85526 24.8625 4.52848 24.5389 4.33077C24.8059 4.0795 25.1484 4.06989 25.4801 4.03694C30.6691 3.51244 35.8581 2.98796 41.047 2.46621C42.7165 2.2987 44.3886 2.14217 46.058 1.98016C46.0715 6.6333 46.0769 11.2851 46.1079 15.9383C46.112 16.5177 45.9946 16.7154 45.3554 16.7895C43.8559 16.9653 43.2464 17.5461 43.6132 19.1305C44.4884 22.9063 45.4498 26.6602 46.3601 30.4263C46.5529 31.2255 46.8091 32.008 47.0438 32.8195C47.2865 32.6822 47.2663 32.4996 47.3094 32.3595C47.9958 30.1476 48.6984 27.9398 49.3416 25.7141C49.649 24.65 50.1534 23.6368 50.202 22.5013C50.2438 22.4972 50.3179 22.504 50.3247 22.4862C50.7184 21.3287 51.2173 20.1932 51.2618 18.9479C51.3104 17.5955 50.6226 16.9502 49.2674 16.9886C49.0921 16.9571 48.9128 16.8857 48.7415 16.9021C48.1536 16.9612 47.9945 16.6646 48.039 16.1277C48.2291 13.876 48.0754 11.6188 48.128 9.3656C48.1428 8.72992 48.0457 8.10517 48.0781 7.46127C48.1698 5.62277 48.2197 3.77744 48.0862 1.93485C48.2588 1.67947 48.5298 1.64789 48.7981 1.61905C53.7135 1.09182 58.6232 0.560461 63.533 0.0318476C63.6653 0.0181175 63.8003 0.0332206 63.9337 0.0345936C63.95 5.46353 63.9659 10.891 63.9807 16.32C63.9807 16.4339 63.974 16.5479 63.9618 16.6605C63.951 16.7607 63.8713 16.8664 63.7962 16.8307C63.3551 16.6234 62.9881 16.9721 62.5756 16.979C61.4216 16.9955 60.5378 17.6476 60.1428 18.768C59.8785 19.5163 59.6398 20.2729 59.3919 21.0266C57.9516 25.4039 56.5113 29.781 55.0741 34.1596C54.3902 36.2452 53.7176 38.3335 53.0352 40.4191C52.5011 42.049 51.9619 43.6773 51.4196 45.3057C51.0286 46.481 50.682 47.6756 50.2127 48.8179C49.9619 49.4317 49.7502 50.0248 49.734 50.6866C48.2183 50.6935 46.7215 50.4889 45.2193 50.3186C43.6227 50.1374 42.0193 50.0275 40.42 49.8806C39.6406 49.8092 38.8638 49.709 38.0844 49.6596C37.7109 49.6348 37.5302 49.4605 37.4182 49.1186C36.6146 46.6664 35.8028 44.2156 34.9869 41.7675C34.9236 41.5766 34.9451 41.2897 34.6202 41.3034C34.6485 40.8874 34.5594 40.4919 34.4341 40.1006C33.9688 38.6576 33.5454 37.2008 33.033 35.7756C32.7255 34.9188 32.5812 33.9935 32.0297 33.0364C31.8719 33.4882 31.7587 33.7943 31.6575 34.106C30.812 36.712 29.9692 39.318 29.1251 41.924C28.4495 44.0068 27.7725 46.087 27.0956 48.1698C26.9324 48.163 26.7706 48.1547 26.6074 48.1479C26.602 48.1465 26.5953 48.1492 26.5953 48.1492Z" fill="white"/>
<path d="M49.7326 50.6865C49.7488 50.0247 49.9605 49.4315 50.2113 48.8178C50.6792 47.6754 51.0272 46.4795 51.4183 45.3056C51.9603 43.6786 52.4996 42.0502 53.0337 40.419C53.716 38.3334 54.3892 36.2437 55.0725 34.1594C56.5087 29.7809 57.9506 25.4037 59.3904 21.0265C59.6388 20.2728 59.8775 19.5162 60.1417 18.7679C60.5368 17.6475 61.42 16.9967 62.5741 16.9789C62.9871 16.9734 63.3535 16.6246 63.7946 16.8306C63.8713 16.8663 63.95 16.7606 63.9607 16.6603C63.9725 16.5477 63.9796 16.4338 63.9796 16.3198C63.9648 10.8909 63.9485 5.46335 63.9321 0.0344616C65.5692 0.0248504 67.2048 0.0248504 68.8408 0.000136123C69.2129 -0.00535594 69.2804 0.155287 69.2788 0.491676C69.2482 5.85329 69.2236 11.2135 69.2088 16.5752C69.2073 16.9377 69.0754 17.0667 68.734 17.0475C68.4212 17.0297 68.1074 17.0448 67.793 17.0448C66.4703 17.0448 65.7823 17.4814 65.3412 18.772C64.4514 21.3725 63.5963 23.9854 62.7535 26.601C60.2618 34.3379 57.7737 42.0776 55.3112 49.8255C55.0981 50.4956 54.819 50.762 54.1019 50.7276C52.6468 50.6576 51.1877 50.6947 49.7326 50.6865Z" fill="white" fill-opacity="0.5"/>
<path d="M48.0915 1.94006C48.2264 3.78265 48.1751 5.6266 48.0834 7.46645C48.0511 8.11041 48.1482 8.7351 48.1333 9.37084C48.0794 11.6239 48.2345 13.8812 48.0443 16.133C47.9985 16.6698 48.159 16.9663 48.7469 16.9073C48.9182 16.8908 49.0975 16.9622 49.2742 16.9925C48.9208 17.5966 48.9222 18.257 49.0961 18.8913C49.4306 20.1064 49.8338 21.3023 50.2073 22.5051C50.1587 23.642 49.6544 24.6539 49.347 25.718C48.7038 27.9436 48.0012 30.1515 47.3148 32.3634C47.2716 32.5034 47.2932 32.6861 47.0491 32.8233C46.8159 32.0105 46.5583 31.2279 46.3655 30.4302C45.4552 26.664 44.4937 22.9101 43.6186 19.1344C43.2518 17.5485 43.8613 16.9691 45.3608 16.7934C46 16.7179 46.1173 16.5201 46.1133 15.9421C46.0823 11.289 46.0769 6.63713 46.0634 1.984C46.739 1.96752 47.4146 1.95379 48.0915 1.94006Z" fill="white" fill-opacity="0.5"/>
<path d="M27.6053 23.4306C26.9485 25.5312 26.2918 27.6306 25.6365 29.7313C25.3007 30.8105 24.9676 31.8897 24.501 32.9634C24.3163 32.3991 24.1181 31.8389 23.9482 31.2691C23.3076 29.1217 22.6118 26.988 22.0603 24.8173C21.6193 23.0804 21.1635 21.3518 20.6484 19.6382C20.0213 17.5513 20.8925 17.2863 22.3178 16.9375C22.8154 16.8153 22.9112 16.6725 22.9085 16.2112C22.8801 12.5411 22.8882 8.86971 22.8424 5.201C22.8343 4.54744 22.9894 4.27696 23.6488 4.37582C23.8875 4.41152 24.1383 4.35934 24.3824 4.34698C24.4363 4.34286 24.4903 4.33874 24.5428 4.33325C24.8665 4.53097 24.7532 4.85775 24.7532 5.13784C24.7518 8.78181 24.7559 12.4258 24.7249 16.0698C24.7195 16.6849 24.8544 17.0145 25.5192 16.9815C25.8765 16.9636 26.1651 17.138 26.2986 17.5073C25.8765 18.1691 26.0073 18.846 26.2379 19.5284C26.6546 20.7628 27.0658 21.9985 27.4785 23.2342C27.4758 23.3344 27.4853 23.4251 27.612 23.4374L27.6053 23.4306Z" fill="white" fill-opacity="0.5"/>
<path d="M27.0901 48.1683C27.7671 46.0868 28.444 44.0053 29.1196 41.9224C29.9651 39.3164 30.8066 36.7105 31.6521 34.1045C31.7532 33.7928 31.8665 33.4866 32.0242 33.0349C32.5758 33.9919 32.7201 34.9173 33.0276 35.7741C33.5399 37.1993 33.9634 38.656 34.4286 40.0991C34.5554 40.4904 34.6444 40.8872 34.6147 41.3019C33.8906 43.4753 33.1597 45.6461 32.4477 47.8237C32.3533 48.1107 32.2198 48.2315 31.9245 48.2273C30.3144 48.2026 28.7029 48.1875 27.0901 48.1683Z" fill="white" fill-opacity="0.5"/>
<path d="M26.5953 48.1495L26.6033 48.1479C26.6033 48.1463 26.5953 48.1495 26.5953 48.1495Z" fill="black" fill-opacity="0.1"/>
<path d="M27.4785 23.2329C27.5527 23.2796 27.6538 23.3098 27.612 23.4361C27.4852 23.4238 27.4758 23.3331 27.4785 23.2329Z" fill="white"/>
</g>
<defs>
<clipPath id="clip0">
<rect width="69" height="51" fill="white" transform="translate(0.422485)"/>
</clipPath>
</defs>
</svg>
