<svg width="48" height="48" viewBox="0 0 48 48" fill="none" xmlns="http://www.w3.org/2000/svg">
<path d="M48 37.714C48 39.2811 46.7297 40.5515 45.1627 40.5515H2.83734C1.27031 40.5515 0 39.2809 0 37.714V10.286C0 8.71895 1.27031 7.44855 2.83734 7.44855H45.1626C46.7297 7.44855 47.9999 8.71895 47.9999 10.286L48 37.714Z" fill="#0099DF"/>
<path opacity="0.15" d="M2.01722 37.714V10.286C2.01722 8.71895 3.28772 7.44855 4.85475 7.44855H2.83725C1.27031 7.44855 0 8.71905 0 10.286V37.714C0 39.2811 1.27031 40.5515 2.83734 40.5515H4.85484C3.28781 40.5515 2.01722 39.2809 2.01722 37.714Z" fill="#202121"/>
<path d="M31.3769 21.9916C31.3769 20.3014 32.1554 18.7933 33.3734 17.8057C32.4479 17.0553 31.2683 16.6052 29.9838 16.6052C27.009 16.6052 24.5978 19.0166 24.5978 21.9915C24.5978 24.9662 27.009 27.3775 29.9838 27.3775C31.2684 27.3775 32.4479 26.9277 33.3734 26.1769C32.1554 25.1897 31.3769 23.6816 31.3769 21.9916Z" fill="#EA001B"/>
<path d="M36.7631 16.6053C35.4785 16.6053 34.2994 17.0554 33.3735 17.8058C34.5917 18.7934 35.3702 20.3016 35.3702 21.9917C35.3702 23.6817 34.5917 25.1898 33.3735 26.1771C34.2994 26.9278 35.4787 27.3777 36.7631 27.3777C39.7381 27.3777 42.1493 24.9665 42.1493 21.9917C42.1493 19.0167 39.7379 16.6053 36.7631 16.6053Z" fill="#F79F1A"/>
<path d="M35.3701 21.9916C35.3701 20.3015 34.5916 18.7933 33.3734 17.8058C32.1555 18.7933 31.3769 20.3015 31.3769 21.9916C31.3769 23.6817 32.1554 25.1897 33.3734 26.1771C34.5915 25.1897 35.3701 23.6817 35.3701 21.9916Z" fill="#FF5F01"/>
<path d="M15.5478 24.4885C15.5478 24.867 15.2406 25.1737 14.8626 25.1737H6.36112C5.98265 25.1737 5.67599 24.867 5.67599 24.4885V17.8635C5.67599 17.485 5.98274 17.1785 6.36112 17.1785H14.8626C15.2407 17.1785 15.5478 17.485 15.5478 17.8635V24.4885Z" fill="#FFC715"/>
<path d="M15.6415 31.0411H5.6759C5.24362 31.0411 4.89327 30.6907 4.89327 30.2585C4.89327 29.8262 5.24352 29.4759 5.6759 29.4759H15.6415C16.0738 29.4759 16.4241 29.8261 16.4241 30.2585C16.4241 30.6907 16.0738 31.0411 15.6415 31.0411Z" fill="#34495E"/>
<path d="M15.6415 34.3049H5.6759C5.24362 34.3049 4.89327 33.9546 4.89327 33.5223C4.89327 33.09 5.24352 32.7396 5.6759 32.7396H15.6415C16.0738 32.7396 16.4241 33.0899 16.4241 33.5223C16.4241 33.9545 16.0738 34.3049 15.6415 34.3049Z" fill="#34495E"/>
<path d="M8.33375 25.1738H9.899V24.3912V17.961V17.1784H8.33375V17.961V19.0607H6.45856H5.67593V20.626H6.45856H8.33375V21.7262H6.45856H5.67593V23.2914H6.45856H8.33375V24.3912V25.1738Z" fill="#FFA617"/>
<path d="M14.7653 20.626H15.5479V19.0607H14.7653H13.2728V17.961V17.1784H11.7076V17.961V22.5087C11.7076 22.9409 12.0578 23.2914 12.4902 23.2914H14.7653H15.5479V21.7261H14.7653H13.2728V20.626H14.7653Z" fill="#FFA617"/>
<path opacity="0.15" d="M7.11749 24.4885V17.8635C7.11749 17.485 7.42415 17.1785 7.80262 17.1785H6.36112C5.98265 17.1785 5.67599 17.485 5.67599 17.8635V24.4885C5.67599 24.867 5.98274 25.1737 6.36112 25.1737H7.80271C7.42415 25.1737 7.11749 24.867 7.11749 24.4885Z" fill="#202121"/>
</svg>
