<svg width="48" height="48" viewBox="0 0 48 48" fill="none" xmlns="http://www.w3.org/2000/svg">
<path d="M48 37.7139C48 39.281 46.7297 40.5514 45.1627 40.5514H2.83734C1.27031 40.5515 0 39.281 0 37.7139V10.286C0 8.71886 1.27031 7.44855 2.83734 7.44855H45.1627C46.7298 7.44855 48 8.71895 48 10.286V37.7139Z" fill="white"/>
<path d="M10.6537 24.1908L9.52668 18.7841C9.33402 18.0385 8.77339 17.8167 8.07289 17.7874H2.90558L2.85955 18.0344C6.88414 19.01 9.54711 21.3637 10.6537 24.1908Z" fill="#F79F1A"/>
<path d="M22.6269 17.8962H19.2882L17.203 30.1331H20.5362L22.6269 17.8962Z" fill="#059BBF"/>
<path d="M12.6886 30.1207L17.9395 17.9045H14.406L11.1395 26.2508L10.7908 24.9907C10.1505 23.4746 8.3205 21.2926 6.17213 19.919L9.15806 30.1249L12.6886 30.1207Z" fill="#059BBF"/>
<path d="M32.1498 26.1328C32.1622 24.7435 31.2701 23.6839 29.3479 22.8086C28.1797 22.2433 27.4676 21.8663 27.4762 21.2927C27.4762 20.7859 28.0792 20.2415 29.3857 20.2415C30.4789 20.2247 31.266 20.4634 31.8817 20.7105L32.1833 20.8488L32.6358 18.1978C31.974 17.9506 30.9395 17.6868 29.6456 17.6868C26.3496 17.6868 24.0296 19.3453 24.0086 21.724C23.9876 23.483 25.6672 24.463 26.9318 25.0492C28.23 25.6468 28.6656 26.0292 28.6572 26.5653C28.6489 27.3849 27.6227 27.7587 26.6637 27.7587C25.3278 27.7587 24.62 27.5745 23.5222 27.1172L23.0957 26.9212L22.6271 29.6633C23.4055 30.0035 24.846 30.3009 26.3413 30.3133C29.8463 30.3133 32.1247 28.6759 32.1498 26.1328Z" fill="#059BBF"/>
<path d="M36.1156 28.299C36.4967 28.299 39.9014 28.3032 40.3874 28.3032C40.4879 28.7293 40.7936 30.1374 40.7936 30.1374H43.8884L41.1872 17.9088H38.6117C37.8117 17.9088 37.2173 18.1266 36.8653 18.9222L31.9111 30.1374H35.4166C35.4163 30.1374 35.9857 28.63 36.1156 28.299ZM38.4021 22.373C38.3856 22.4065 38.6786 21.6653 38.8462 21.2046L39.0722 22.2599C39.0722 22.2599 39.7089 25.1832 39.8428 25.7946H37.0746C37.351 25.0911 38.4021 22.373 38.4021 22.373Z" fill="#059BBF"/>
<path d="M45.1627 7.44855H2.83734C1.27031 7.44855 0 8.71886 0 10.286V13.2309H48V10.286C48 8.71886 46.7298 7.44855 45.1627 7.44855Z" fill="#059BBF"/>
<path d="M45.1627 40.5515H2.83734C1.27031 40.5515 0 39.2811 0 37.714V34.7692H48V37.714C48 39.2811 46.7298 40.5515 45.1627 40.5515Z" fill="#F79F1A"/>
<path opacity="0.15" d="M2.01722 37.7139V10.286C2.01722 8.71886 3.28763 7.44855 4.85475 7.44855H2.83725C1.27031 7.44855 0 8.71886 0 10.286V37.714C0 39.2811 1.27031 40.5515 2.83734 40.5515H4.85484C3.28772 40.5515 2.01722 39.281 2.01722 37.7139Z" fill="#202121"/>
</svg>
